<?xml version="1.0" standalone="no"?>
<!DOCTYPE svg PUBLIC "-//W3C//DTD SVG 20010904//EN"
 "http://www.w3.org/TR/2001/REC-SVG-20010904/DTD/svg10.dtd">
<svg version="1.0" xmlns="http://www.w3.org/2000/svg"
 width="1463.000000pt" height="1463.000000pt" viewBox="0 0 1463.000000 1463.000000"
 preserveAspectRatio="xMidYMid meet">
<metadata>
Created by potrace 1.14, written by Peter Selinger 2001-2017
</metadata>
<g transform="translate(0.000000,1463.000000) scale(0.100000,-0.100000)"
fill="#000000" stroke="none">
<path d="M6975 14609 c-535 -85 -981 -337 -1297 -734 -237 -299 -376 -640
-423 -1043 -19 -165 -19 -234 2 -425 12 -114 14 -163 7 -175 -6 -9 -56 -35
-110 -57 -319 -130 -395 -237 -349 -492 23 -132 58 -240 112 -346 32 -65 41
-92 34 -101 -7 -8 -47 -16 -95 -20 -271 -20 -423 -100 -501 -262 -55 -115 -42
-207 38 -265 32 -23 50 -29 94 -29 68 0 95 14 161 84 29 31 57 56 63 56 14 0
11 -44 -16 -194 -39 -216 -31 -357 26 -473 24 -51 40 -69 90 -102 62 -41 169
-81 218 -81 85 0 174 62 193 135 l12 43 37 -20 c80 -41 151 -24 297 73 57 38
110 69 118 69 20 0 71 -83 88 -144 16 -56 41 -240 51 -381 5 -69 3 -105 -10
-155 -82 -318 -50 -561 96 -715 l49 -52 0 -150 0 -150 -47 -6 c-27 -4 -58 -9
-70 -13 -23 -6 -23 -6 -23 109 0 265 -49 427 -162 533 -117 110 -274 132 -417
60 -31 -15 -53 -20 -66 -15 -54 21 -106 10 -205 -43 l-98 -52 -47 43 c-89 82
-226 123 -337 101 -220 -43 -400 -218 -571 -556 -46 -92 -66 -123 -77 -118
-43 16 -113 22 -168 14 -82 -11 -155 -54 -230 -134 -92 -98 -131 -197 -132
-326 0 -132 64 -281 166 -388 61 -64 61 -64 52 -106 -32 -142 -68 -389 -68
-473 0 -63 -7 -75 -30 -48 -22 26 -114 82 -172 103 -255 95 -515 60 -751 -99
l-58 -40 -42 29 c-111 76 -218 112 -357 119 -124 7 -193 -9 -274 -61 -76 -49
-188 -171 -226 -246 -30 -57 -34 -77 -38 -160 -4 -92 -3 -97 30 -160 25 -48
46 -73 80 -97 26 -17 53 -33 60 -35 8 -3 -17 -64 -74 -179 -130 -261 -204
-463 -259 -712 -30 -130 -37 -404 -15 -501 37 -159 141 -287 286 -354 174 -81
395 -38 493 95 l24 33 47 -70 c79 -115 188 -190 328 -226 98 -25 289 -16 393
20 183 63 297 143 331 232 13 35 22 44 40 44 29 0 30 -7 4 -40 -11 -14 -20
-28 -20 -31 0 -4 -26 -62 -59 -130 -32 -68 -70 -149 -84 -179 -13 -30 -46 -99
-71 -153 -66 -142 -69 -159 -52 -264 45 -266 66 -373 74 -390 22 -39 73 -73
237 -158 764 -395 1213 -652 1795 -1030 36 -23 121 -77 190 -120 147 -93 392
-258 540 -364 281 -201 750 -557 778 -591 16 -19 11 -73 -17 -200 -12 -52 -24
-143 -28 -202 -11 -196 26 -285 178 -428 88 -83 91 -87 110 -160 25 -94 50
-144 97 -193 71 -74 165 -103 302 -94 177 13 333 84 475 217 68 63 68 63 172
-45 50 -53 117 -132 149 -176 32 -43 61 -79 65 -79 4 0 21 19 37 42 16 24 67
97 114 163 46 66 142 201 211 299 71 100 127 189 127 202 0 26 -135 199 -270
347 -52 57 -64 85 -51 113 12 28 178 250 320 429 176 223 570 597 911 866 487
384 907 610 1905 1026 370 154 455 194 574 268 158 98 242 200 287 350 14 47
18 92 18 205 -1 127 -4 156 -28 234 -25 84 -98 240 -117 252 -27 16 2 21 95
17 348 -18 641 165 911 567 122 182 145 232 145 314 0 38 -7 83 -16 104 -30
74 -112 136 -197 150 l-42 7 -6 80 c-4 44 -12 100 -19 125 -63 232 -311 380
-552 329 -64 -14 -180 -65 -244 -110 -26 -18 -80 -63 -120 -101 l-72 -68 -30
52 c-98 174 -313 269 -514 227 -72 -15 -183 -68 -253 -119 -66 -49 -173 -155
-218 -217 -17 -24 -34 -43 -37 -43 -4 0 -10 15 -13 34 -8 52 -53 139 -98 189
-102 116 -310 155 -477 88 -47 -19 -56 -19 -80 -7 -137 69 -307 34 -441 -90
l-59 -54 -14 22 c-50 76 -135 128 -241 148 -74 14 -128 10 -199 -15 -42 -14
-51 -13 -124 6 -59 15 -96 19 -145 15 l-67 -6 -1 108 c-1 59 -4 137 -7 174
l-6 66 53 31 c30 17 60 31 67 31 7 0 29 -11 50 -25 62 -40 121 -57 232 -62
122 -6 190 5 277 46 l60 29 59 -29 c146 -72 354 -68 495 8 l47 25 44 -26 c122
-71 321 -72 476 -1 194 89 399 282 569 535 167 249 194 328 158 453 -23 80
-79 146 -156 185 -60 31 -74 34 -148 33 -60 -1 -96 -6 -128 -21 -25 -11 -47
-20 -49 -20 -2 0 -4 23 -4 51 0 114 -57 251 -139 339 -131 139 -384 170 -579
71 l-58 -29 -70 34 c-38 19 -96 39 -129 45 -73 14 -193 6 -259 -17 -45 -16
-52 -16 -101 0 -74 23 -200 21 -268 -4 -45 -17 -112 -56 -163 -94 -9 -7 -25 1
-53 27 -61 55 -112 84 -198 113 -64 22 -96 26 -176 26 -96 -1 -99 0 -94 21 22
93 16 213 -18 348 -6 24 -2 29 41 49 141 69 320 261 423 454 19 37 26 41 103
63 45 13 119 41 163 62 129 61 182 136 173 247 -10 113 -108 194 -237 194
l-67 0 -13 37 c-71 197 -276 278 -464 185 -34 -17 -63 -29 -65 -27 -2 2 4 54
13 115 12 86 13 115 4 126 -9 11 -7 47 6 157 17 141 18 143 66 217 42 66 77
154 153 385 8 23 98 97 159 130 43 24 96 38 281 76 126 26 147 40 197 131 162
299 182 499 69 670 -55 83 -135 118 -345 152 -49 8 -125 20 -168 26 -43 7 -81
18 -84 24 -4 6 -8 114 -8 241 -1 230 -8 293 -45 456 -93 404 -337 803 -652
1065 -267 222 -588 371 -948 440 -101 19 -492 28 -585 13z m527 -348 c341 -57
645 -215 894 -465 118 -119 177 -194 261 -334 152 -253 242 -611 184 -737 -62
-138 -298 -216 -824 -270 -252 -26 -640 -53 -847 -59 -80 -3 -228 -8 -330 -12
-376 -13 -578 30 -775 167 -216 149 -335 366 -335 610 0 155 50 284 178 459
78 107 271 295 377 366 179 122 407 219 625 266 162 35 414 39 592 9z m1058
-2141 c473 -24 647 -40 762 -69 89 -22 108 -32 142 -72 32 -37 34 -90 6 -136
-49 -81 -134 -89 -799 -74 -284 6 -581 14 -660 17 -88 4 -141 2 -138 -4 4 -5
69 -12 145 -16 284 -13 703 -85 749 -128 80 -75 -17 -91 -682 -108 -415 -11
-689 -22 -935 -40 -359 -26 -564 -41 -660 -50 -58 -6 -188 -13 -290 -17 l-185
-6 -52 42 c-29 23 -53 45 -53 49 0 4 14 24 30 44 32 39 92 70 204 108 37 12
65 24 63 26 -7 7 -438 -34 -587 -56 -74 -11 -172 -29 -218 -40 -97 -23 -126
-25 -140 -7 -14 16 -26 166 -18 212 8 40 55 99 97 121 54 27 267 66 629 114
227 30 762 69 1225 89 218 10 1175 10 1365 1z m-2865 -854 c29 -21 25 -111 -7
-173 -34 -67 -86 -100 -186 -120 -73 -14 -85 -20 -98 -44 -24 -47 -19 -55 30
-51 48 4 99 -17 116 -47 24 -45 0 -178 -57 -321 -5 -11 1 -10 23 5 39 25 54
48 85 126 61 155 168 249 282 249 64 0 107 -44 107 -110 0 -49 -28 -86 -115
-153 -94 -72 -115 -94 -115 -119 0 -50 107 5 203 105 31 33 60 57 64 53 16
-16 5 -97 -21 -149 -32 -66 -138 -169 -192 -187 -45 -15 -92 -3 -166 42 -41
25 -54 29 -67 20 -110 -79 -171 -91 -219 -43 -49 49 -49 106 2 294 14 55 23
103 20 109 -3 5 -17 0 -30 -13 -23 -21 -32 -46 -102 -279 -15 -53 -49 -120
-59 -120 -3 0 -22 14 -44 30 -70 56 -64 141 27 420 29 92 54 178 54 191 0 50
-38 -14 -74 -126 -72 -223 -111 -434 -101 -545 18 -194 18 -197 -3 -202 -24
-7 -87 15 -114 39 -35 31 -50 73 -55 153 -9 125 30 341 99 551 17 53 28 104
25 113 -8 21 -34 20 -159 -4 -224 -45 -282 -74 -294 -149 -6 -35 -10 -41 -31
-41 -40 0 -73 42 -73 93 0 90 60 172 147 201 61 20 254 43 648 76 175 15 317
57 388 116 33 28 37 29 62 10z m2687 -57 c112 -11 167 -37 198 -92 29 -52 -7
-77 -145 -101 -160 -27 -305 -36 -595 -36 -157 0 -375 -5 -485 -10 -533 -26
-662 -31 -815 -30 -91 0 -205 4 -254 9 -83 8 -90 10 -124 45 -30 30 -35 39
-26 54 21 33 75 60 142 71 145 24 709 65 1302 95 158 7 713 5 802 -5z m-524
-446 c-2 -11 -34 -30 -83 -51 -44 -18 -124 -54 -178 -79 l-97 -46 -48 24 c-66
34 -158 33 -227 -1 -93 -47 -170 -145 -227 -290 -18 -45 -36 -72 -59 -87 -17
-13 -35 -23 -40 -23 -4 0 -19 39 -34 88 -15 48 -52 136 -81 196 -41 83 -51
112 -41 118 40 28 160 83 235 108 148 49 226 57 570 59 290 1 313 0 310 -16z
m-1445 -203 c38 -6 83 -17 100 -26 38 -19 87 -63 87 -78 0 -6 14 -37 31 -70
47 -88 66 -153 110 -368 22 -109 55 -254 74 -324 19 -69 35 -129 35 -133 1 -3
16 32 34 79 50 128 90 210 176 370 43 80 84 165 90 190 14 54 62 153 95 196
13 17 40 39 60 48 33 16 37 16 65 0 35 -21 60 -78 60 -137 0 -65 -34 -174
-109 -352 -148 -348 -211 -563 -211 -718 0 -65 1 -68 21 -62 11 4 33 2 48 -5
73 -30 73 -144 0 -250 -105 -154 -295 -114 -445 95 -88 125 -160 318 -208 560
-21 107 -46 304 -46 368 l-1 52 -39 -92 c-88 -210 -170 -506 -170 -618 0 -29
11 -67 35 -116 42 -87 43 -109 10 -165 -46 -79 -100 -100 -190 -75 -68 19
-119 77 -151 171 -29 85 -25 255 10 388 50 196 173 477 310 710 72 124 82 166
42 176 -29 7 -123 -17 -195 -50 -30 -13 -55 -23 -56 -22 -32 40 -31 86 1 134
53 77 136 122 249 133 6 0 41 -4 78 -9z m1394 -505 c65 -19 116 -69 133 -129
18 -65 9 -189 -19 -251 -61 -138 -226 -220 -368 -182 -29 8 -55 12 -58 9 -10
-10 -5 -83 7 -105 20 -38 40 -46 118 -47 114 0 214 37 316 118 45 35 52 47 69
108 46 170 116 315 188 389 59 60 105 77 153 53 48 -23 52 -41 20 -105 -65
-133 -109 -333 -104 -473 3 -77 5 -85 23 -85 29 0 88 92 131 203 20 54 50 133
67 176 41 106 101 195 152 223 55 31 109 30 141 -2 14 -14 24 -29 22 -33 -35
-67 -61 -137 -81 -223 -42 -170 -48 -349 -12 -349 33 0 98 106 149 243 23 61
24 70 11 84 -60 59 -7 260 87 335 96 76 194 74 246 -4 23 -36 27 -51 26 -117
0 -42 -3 -89 -8 -105 l-7 -29 58 6 c32 4 83 13 113 22 93 26 114 28 135 11 16
-12 18 -19 10 -33 -22 -38 -200 -108 -325 -128 -33 -6 -38 -12 -79 -95 -69
-140 -201 -305 -297 -371 -130 -89 -273 -92 -361 -7 l-32 31 -27 -22 c-50 -39
-117 -63 -191 -68 -60 -5 -79 -2 -118 17 -53 26 -101 85 -111 136 -3 19 -9 34
-11 34 -3 0 -33 -26 -67 -58 -127 -118 -221 -162 -361 -170 -112 -5 -185 14
-243 64 -167 143 -72 557 185 805 75 73 123 105 186 125 55 17 74 17 134 -1z
m81 -1092 c-65 -71 -188 -262 -258 -402 l-51 -100 -52 24 c-29 13 -83 30 -121
37 -57 11 -70 17 -82 39 -7 15 -36 52 -65 83 -28 31 -47 56 -42 56 17 0 111
102 135 146 l23 44 45 -7 c130 -21 306 9 415 72 73 42 87 44 53 8z m-3296 -13
c32 -9 88 -59 88 -78 0 -4 -25 -41 -56 -82 -61 -81 -107 -172 -177 -351 -44
-112 -137 -394 -137 -416 0 -6 30 -16 68 -22 63 -10 358 -32 393 -29 11 1 34
47 74 147 127 321 296 617 434 760 84 87 135 102 190 56 16 -15 40 -51 52 -83
20 -51 23 -76 23 -227 1 -187 -12 -276 -65 -439 -55 -167 -180 -335 -306 -411
-49 -29 -51 -31 -63 -95 -43 -233 -52 -406 -25 -497 16 -55 61 -103 97 -103
32 0 78 -56 78 -96 0 -105 -135 -214 -265 -214 -135 0 -257 135 -311 345 -28
110 -22 373 12 510 5 19 -1 20 -193 23 -109 2 -218 4 -243 5 l-45 2 -22 -130
c-12 -71 -32 -195 -44 -275 -21 -142 -21 -146 -3 -245 10 -55 18 -133 18 -173
l1 -73 -41 -39 c-88 -81 -241 -92 -307 -21 -62 66 -92 220 -84 425 7 191 46
407 112 631 5 16 -4 25 -50 49 -123 64 -202 167 -212 275 -7 75 8 118 59 169
74 75 121 67 111 -18 -5 -46 -3 -52 28 -83 33 -33 142 -82 163 -74 6 3 33 60
60 128 69 176 185 414 249 511 81 124 167 206 244 234 47 16 49 16 95 4z
m3866 -14 c34 -18 64 -51 88 -96 14 -26 18 -57 18 -125 0 -150 -53 -317 -149
-466 -64 -99 -218 -251 -332 -328 -51 -34 -93 -63 -93 -64 0 -1 -14 -55 -30
-121 -38 -151 -42 -289 -10 -324 20 -21 45 -27 100 -22 32 2 93 38 159 92 48
40 54 51 86 145 65 193 160 349 295 483 92 92 182 147 277 171 127 31 263 -43
308 -170 19 -55 20 -200 1 -262 -35 -115 -117 -224 -197 -261 -97 -46 -245
-61 -323 -33 -22 8 -43 12 -47 10 -12 -8 -16 -79 -6 -118 6 -24 22 -47 42 -63
27 -21 43 -24 108 -24 148 0 289 51 415 151 69 55 70 57 102 174 52 189 152
393 234 476 54 54 91 72 148 73 39 0 53 -5 78 -29 16 -16 30 -33 30 -37 0 -5
-21 -52 -46 -104 -26 -52 -44 -97 -42 -99 2 -3 20 18 40 46 54 78 155 176 206
201 62 30 150 35 207 14 78 -30 112 -89 124 -218 l6 -70 42 60 c118 168 223
242 340 242 128 0 187 -60 208 -210 7 -52 -16 -242 -46 -368 -24 -104 -25
-189 -2 -214 18 -21 73 -24 106 -7 35 18 122 94 249 216 118 115 142 128 173
97 25 -25 13 -55 -72 -184 -147 -223 -269 -359 -404 -449 -90 -60 -161 -84
-240 -79 -79 4 -125 30 -169 97 -67 99 -51 257 65 641 52 169 62 224 45 235
-19 12 -58 -33 -121 -140 -71 -120 -223 -426 -238 -481 -25 -88 -8 -187 38
-228 28 -25 27 -37 -6 -68 -50 -46 -86 -58 -176 -58 -107 0 -158 24 -202 94
-26 43 -30 59 -33 146 -5 111 14 218 74 417 77 255 90 323 60 323 -34 0 -163
-183 -243 -346 -53 -107 -78 -172 -107 -281 -28 -107 -25 -136 27 -217 l31
-49 -42 -37 c-23 -21 -56 -40 -73 -44 -55 -11 -168 -7 -202 8 -68 28 -127 127
-127 213 0 26 -3 24 -72 -43 -95 -92 -140 -126 -224 -168 -103 -51 -195 -70
-307 -63 -110 7 -155 20 -224 64 -58 36 -107 109 -118 176 l-7 39 -77 -74
c-143 -138 -212 -177 -331 -185 -67 -5 -79 -3 -110 19 -19 13 -45 39 -57 57
-30 44 -63 152 -63 203 l0 40 -119 -115 c-133 -127 -274 -228 -353 -252 -61
-18 -151 -20 -199 -4 -123 42 -174 151 -145 316 28 162 140 340 333 529 57 55
103 108 103 117 0 24 -36 39 -73 32 -106 -21 -119 -30 -179 -124 -32 -49 -63
-102 -68 -117 -38 -98 -247 -390 -352 -490 -76 -73 -184 -145 -251 -168 -121
-41 -235 -4 -291 94 -27 48 -30 64 -31 136 l0 81 -33 -59 c-48 -85 -163 -197
-241 -236 -55 -28 -74 -32 -140 -32 -101 1 -151 23 -190 85 -106 167 -42 526
142 800 64 96 191 214 277 259 134 70 261 60 338 -28 l29 -33 31 37 c39 47 87
70 146 70 59 0 110 -21 132 -55 19 -29 23 -6 -44 -267 -68 -265 -86 -422 -52
-463 7 -9 29 -15 51 -15 35 0 43 6 100 72 74 86 204 259 224 299 8 15 20 50
26 77 10 47 8 52 -20 94 -87 129 -56 344 69 468 79 80 167 86 229 15 52 -59
54 -159 6 -235 l-26 -41 53 27 c148 75 303 71 386 -9 51 -48 62 -77 62 -159
-1 -128 -67 -274 -198 -437 -111 -138 -132 -171 -132 -205 0 -42 16 -56 61
-56 45 0 88 29 236 159 117 103 108 86 133 241 41 258 140 562 246 755 49 89
172 269 215 314 62 65 127 111 157 112 15 0 43 7 62 14 46 18 95 18 128 1z
m-4028 -1906 c17 -74 78 -214 118 -273 134 -194 344 -287 552 -243 140 29 283
120 345 218 l27 43 87 -3 c108 -4 204 17 288 63 l62 34 73 -38 c40 -21 83 -40
96 -43 22 -6 22 -9 22 -166 l0 -159 -57 -6 c-32 -4 -79 -14 -105 -22 -42 -15
-50 -15 -93 0 -194 65 -447 -26 -629 -226 -53 -59 -66 -69 -66 -48 0 7 -15 44
-34 83 -72 149 -185 217 -363 217 -68 0 -106 -5 -150 -22 -72 -26 -84 -26
-158 1 -119 43 -247 14 -366 -83 l-55 -45 -26 32 -26 33 76 16 c163 35 283
121 346 248 53 106 55 198 10 444 -9 51 12 6 26 -55z m-1316 -20 c134 -34 224
-107 267 -216 19 -50 23 -77 23 -174 -1 -103 -4 -124 -32 -203 -40 -114 -90
-203 -163 -293 -147 -180 -335 -286 -573 -324 -51 -8 -95 -8 -164 0 -51 6 -96
9 -99 6 -6 -6 89 -291 145 -431 19 -49 55 -128 80 -175 105 -201 202 -287 334
-297 93 -6 108 -11 108 -32 0 -53 -190 -136 -334 -147 -149 -12 -276 41 -342
140 -64 97 -125 301 -179 606 -41 231 -46 255 -55 239 -16 -28 -80 -257 -105
-374 -15 -66 -34 -182 -44 -258 -22 -166 -35 -187 -132 -207 -71 -15 -111 -6
-182 41 -65 43 -103 99 -121 180 -73 317 119 916 455 1422 62 94 80 147 59
172 -19 23 -52 18 -150 -20 -106 -41 -133 -43 -165 -10 -49 48 -23 136 67 231
86 91 155 115 276 95 168 -27 302 -143 302 -260 0 -30 3 -28 81 53 134 140
252 212 399 241 93 19 154 17 244 -5z m3512 -147 l23 -27 -39 -42 c-69 -75
-120 -225 -120 -355 0 -59 -2 -63 -43 -104 l-44 -43 -41 48 -42 49 0 197 c0
109 3 195 6 191 9 -9 157 47 217 82 29 17 54 31 56 31 2 0 14 -12 27 -27z
m929 -38 c22 -19 35 -35 29 -35 -6 0 -22 -10 -35 -21 -13 -12 -40 -33 -59 -47
-19 -14 -45 -35 -57 -46 -19 -16 -38 -19 -123 -20 -97 -1 -110 3 -110 33 0 4
19 13 43 20 65 19 157 67 212 110 28 22 52 40 55 40 3 0 23 -15 45 -34z m742
-28 c78 -40 185 -66 297 -73 l102 -7 0 -66 c0 -36 4 -135 9 -218 5 -91 4 -153
-1 -153 -5 0 -29 32 -54 71 -50 80 -135 164 -224 221 -163 105 -379 105 -543
-1 -33 -21 -77 -59 -99 -85 l-38 -46 -37 36 -37 36 61 51 c34 27 94 80 132
117 60 58 80 70 140 89 39 11 97 36 130 55 59 33 61 33 85 16 14 -10 48 -29
77 -43z m-1386 -131 c100 -42 123 -146 54 -246 -89 -128 -181 -154 -236 -68
-17 28 -20 44 -15 108 6 96 23 145 62 187 36 37 77 43 135 19z m534 -261 c106
-51 225 -191 227 -266 1 -43 -31 -69 -86 -69 -55 0 -79 18 -116 89 -61 115
-128 153 -166 96 -29 -45 -14 -98 62 -221 l69 -110 103 33 c93 30 227 62 322
77 l35 6 -3 89 c-5 111 14 177 66 228 82 82 216 103 322 51 112 -55 230 -193
230 -268 0 -45 -16 -60 -69 -67 -61 -8 -96 11 -122 65 -28 62 -74 119 -109
137 -25 13 -30 13 -54 -6 -40 -31 -37 -98 8 -169 19 -30 51 -83 71 -116 l38
-62 66 24 c89 31 248 71 346 85 78 12 81 13 147 74 87 80 176 126 261 132 80
7 123 -7 181 -58 l45 -40 21 29 c38 51 93 75 161 70 39 -3 69 -11 87 -25 24
-18 27 -27 26 -74 0 -30 -19 -124 -43 -214 -46 -173 -75 -358 -65 -412 15 -78
95 -70 197 20 44 39 49 48 67 123 39 168 124 363 203 471 76 102 182 145 250
100 44 -28 43 -52 -2 -141 -38 -75 -86 -214 -77 -224 3 -2 14 15 26 38 74 145
219 304 305 333 116 40 220 9 265 -78 23 -45 25 -60 24 -170 0 -89 -7 -153
-27 -247 -43 -205 -34 -278 36 -278 39 0 88 29 158 95 48 45 57 60 83 140 115
358 408 638 620 593 146 -31 216 -121 224 -290 9 -181 -72 -333 -179 -333 -33
0 -46 6 -65 28 -34 40 -31 86 9 155 70 120 82 188 36 212 -103 56 -325 -252
-354 -492 -9 -70 6 -119 46 -153 57 -47 208 -31 341 36 129 65 248 183 298
296 54 122 100 199 171 287 153 190 323 284 457 254 125 -27 197 -116 209
-254 15 -187 -91 -376 -245 -435 -75 -28 -209 -36 -274 -16 -26 8 -49 12 -52
9 -4 -3 -6 -27 -6 -54 0 -116 50 -155 187 -144 97 8 184 34 268 81 63 35 204
153 243 204 13 17 40 40 59 52 28 18 39 20 59 10 35 -15 30 -40 -25 -133 -83
-140 -151 -229 -250 -329 -174 -174 -310 -241 -496 -242 -140 -1 -234 31 -299
103 -42 47 -61 86 -77 159 l-10 49 -92 -93 c-163 -164 -290 -225 -468 -225
-193 0 -303 71 -361 232 l-24 68 -49 -51 c-59 -59 -164 -138 -218 -163 -146
-67 -273 -33 -333 90 -25 51 -26 61 -21 157 5 105 41 264 107 467 37 117 49
200 28 200 -42 0 -157 -168 -289 -425 -70 -136 -92 -187 -96 -229 -7 -72 3
-119 33 -156 36 -42 29 -68 -30 -104 -56 -35 -151 -46 -222 -27 -57 15 -117
82 -134 148 l-13 51 -67 -57 c-107 -93 -225 -151 -306 -151 -127 0 -232 122
-222 260 1 28 3 50 2 50 -1 0 -17 -26 -37 -57 -19 -32 -62 -84 -94 -116 -109
-108 -185 -143 -290 -135 -106 7 -170 58 -196 155 l-11 43 -32 -68 c-55 -118
-148 -186 -296 -216 -102 -21 -153 -20 -251 5 -125 31 -216 93 -256 174 l-23
46 -27 -43 c-39 -61 -98 -115 -156 -142 -59 -29 -185 -56 -252 -56 -50 0 -163
27 -223 52 -47 20 -144 110 -160 148 -7 17 -15 29 -19 28 -3 -2 -38 -24 -76
-50 -126 -83 -229 -97 -321 -43 -47 27 -78 71 -89 125 -4 19 -10 39 -12 43 -3
5 -28 -13 -57 -41 -126 -122 -283 -184 -382 -152 -97 32 -145 102 -152 222
l-5 79 -29 -51 c-45 -79 -162 -191 -237 -228 -53 -26 -76 -32 -130 -32 -112 1
-179 45 -211 140 l-17 51 -58 -49 c-181 -155 -341 -183 -446 -79 -98 98 -89
265 33 646 46 146 60 241 35 241 -39 0 -185 -219 -301 -455 -99 -200 -108
-274 -42 -364 31 -42 24 -60 -40 -97 -54 -32 -160 -44 -218 -24 -76 25 -128
92 -141 184 l-8 48 -56 -54 c-190 -184 -373 -257 -571 -228 -138 21 -220 76
-269 180 -23 50 -26 67 -26 185 0 119 3 138 32 230 127 394 440 701 668 653
117 -24 184 -95 206 -220 32 -181 -63 -384 -215 -457 -83 -41 -215 -52 -299
-27 -25 7 -48 11 -51 8 -4 -3 -6 -30 -6 -61 0 -112 54 -149 199 -136 136 13
269 71 371 163 39 34 50 52 60 95 17 70 85 258 122 332 94 191 200 281 298
255 21 -6 48 -22 59 -36 l20 -26 -40 -81 c-33 -64 -89 -220 -89 -245 0 -3 22
32 50 78 132 219 251 320 380 320 159 0 226 -121 195 -352 -8 -57 -23 -147
-34 -202 -27 -128 -27 -190 -1 -216 22 -22 54 -25 94 -10 36 13 106 79 106 99
0 10 11 49 24 87 109 320 336 562 544 581 80 7 133 -10 182 -58 l42 -41 31 37
c37 45 81 65 142 65 82 0 135 -35 135 -90 0 -11 -20 -96 -44 -188 -54 -200
-80 -353 -74 -428 5 -60 16 -74 61 -74 65 0 179 94 192 160 4 19 21 77 37 128
86 273 208 462 315 491 48 13 101 0 132 -33 l22 -24 -45 -93 c-69 -145 -126
-381 -126 -526 0 -83 22 -108 83 -99 51 9 59 15 102 86 55 90 145 167 313 265
1 1 -22 46 -52 100 -68 123 -80 164 -74 263 7 127 62 205 172 244 65 24 152
17 221 -17z m-1635 -1503 c50 -23 90 -62 111 -107 33 -71 169 -124 374 -146
154 -16 714 -13 985 6 124 8 342 28 485 45 348 40 392 45 595 72 150 20 218
23 470 23 293 0 405 -10 545 -46 58 -15 182 -91 251 -153 105 -95 145 -209 96
-275 -63 -86 -250 -112 -384 -54 -41 17 -44 23 -27 55 17 32 -4 66 -59 91
-114 51 -581 25 -952 -53 -25 -5 -135 -28 -245 -50 -110 -23 -292 -61 -405
-85 -250 -54 -597 -119 -745 -140 -324 -44 -667 -36 -963 25 -120 25 -286 73
-365 106 -138 57 -266 158 -313 245 -28 51 -25 160 5 222 41 83 114 153 205
197 98 47 110 49 211 46 55 -3 95 -10 125 -24z m-1914 -1 c37 -10 487 -296
856 -542 183 -122 345 -222 431 -265 73 -37 667 -402 694 -426 39 -36 48 -73
28 -119 -30 -66 -44 -63 -224 45 -88 53 -163 96 -167 96 -3 0 59 -64 138 -143
79 -79 152 -160 161 -179 10 -22 19 -73 22 -134 12 -197 45 -310 133 -448 70
-111 184 -215 945 -864 240 -205 297 -258 297 -278 0 -46 -90 -204 -116 -204
-9 0 -70 51 -137 114 -262 244 -543 467 -917 727 -636 442 -1926 1228 -2442
1487 -202 101 -246 135 -284 216 -36 77 -32 117 27 242 103 222 169 350 194
377 58 62 165 89 265 68 45 -10 231 -104 496 -252 174 -97 404 -219 413 -219
27 0 3 20 -102 83 -62 37 -128 77 -147 89 -19 12 -91 56 -160 98 -260 159
-477 293 -530 328 l-54 35 38 33 c48 42 86 51 142 35z m4758 -808 c2 -10 7
-45 11 -78 l6 -60 -90 -78 c-170 -147 -364 -364 -692 -774 -221 -276 -330
-436 -436 -638 -76 -147 -142 -235 -175 -235 -9 0 -85 78 -169 173 -85 94
-162 181 -172 192 -10 11 -32 36 -48 56 l-29 37 78 128 c202 335 437 611 739
867 79 66 178 161 222 212 63 73 86 93 113 98 18 3 121 24 228 46 107 22 233
45 280 51 47 6 87 14 89 16 11 11 40 2 45 -13z m-2882 -134 c33 -17 58 -39 43
-39 -10 0 -125 60 -125 66 0 7 38 -5 82 -27z m2316 -3103 c62 -61 122 -126
134 -144 l20 -33 -52 -79 c-29 -44 -55 -80 -59 -80 -13 0 -38 22 -167 150 -89
89 -134 141 -134 155 0 22 34 76 82 126 18 20 32 27 45 23 10 -4 69 -57 131
-118z"/>
<path d="M5832 10784 c-25 -17 -62 -84 -62 -111 0 -13 10 -7 41 22 36 35 69
83 69 100 0 10 -26 5 -48 -11z"/>
<path d="M8971 9910 c-32 -44 -66 -132 -58 -153 2 -6 26 32 52 86 26 53 45
100 42 103 -3 3 -19 -13 -36 -36z"/>
<path d="M7735 9876 c-55 -24 -185 -189 -185 -235 0 -19 82 -7 135 20 55 29
80 54 104 105 27 56 27 100 2 114 -23 12 -19 12 -56 -4z"/>
<path d="M5384 8613 c-20 -48 -159 -468 -168 -508 l-6 -30 29 34 c64 73 121
208 146 341 18 97 29 200 21 200 -3 0 -13 -17 -22 -37z"/>
<path d="M8348 8675 c-58 -80 -172 -316 -247 -514 -25 -67 -10 -56 70 52 71
95 171 295 199 400 29 107 24 123 -22 62z"/>
<path d="M6922 8328 c-33 -36 -52 -80 -52 -122 0 -51 17 -37 59 48 43 89 40
124 -7 74z"/>
<path d="M8935 8053 c-50 -13 -148 -109 -210 -208 -30 -48 -55 -99 -55 -112 0
-3 29 -3 64 -1 73 6 154 43 199 90 31 32 73 116 82 164 10 47 -29 79 -80 67z"/>
<path d="M5934 7987 c-166 -113 -331 -515 -247 -599 75 -75 211 38 323 268 76
154 96 254 65 314 -31 59 -72 64 -141 17z"/>
<path d="M2801 6754 c-110 -29 -228 -137 -328 -298 -99 -159 -223 -410 -223
-451 0 -36 200 -51 300 -22 63 18 193 93 264 152 159 132 288 386 256 505 -21
78 -97 131 -185 129 -16 0 -54 -7 -84 -15z"/>
<path d="M3596 6038 c-58 -38 -132 -129 -182 -222 l-37 -69 63 6 c79 7 178 54
214 102 63 82 86 184 47 205 -32 16 -55 12 -105 -22z"/>
<path d="M12529 6040 c-61 -40 -146 -144 -193 -239 l-26 -51 36 0 c89 0 200
53 249 120 57 75 74 169 36 190 -31 16 -55 12 -102 -20z"/>
<path d="M9114 6025 c-173 -75 -377 -536 -270 -610 77 -55 200 49 301 254 47
95 85 207 85 252 0 81 -55 130 -116 104z"/>
<path d="M5640 5983 c-73 -65 -127 -143 -171 -243 -70 -158 -86 -265 -48 -314
40 -50 102 -32 185 56 146 154 247 440 184 521 -17 21 -30 27 -60 27 -31 0
-47 -8 -90 -47z"/>
<path d="M7800 5906 c-96 -33 -202 -76 -252 -102 l-28 -14 36 -63 c38 -67 67
-127 94 -196 l17 -43 28 48 c54 93 144 173 297 268 l28 16 -23 38 c-12 21 -27
47 -33 57 -17 30 -59 28 -164 -9z"/>
<path d="M8530 5866 c-115 -47 -170 -73 -170 -82 0 -3 8 -18 19 -32 24 -35 83
-154 106 -216 l19 -49 21 85 c24 95 54 175 99 263 17 33 32 63 34 68 7 14 -25
5 -128 -37z"/>
<path d="M7239 5582 c-89 -99 -118 -205 -70 -256 42 -45 130 -29 161 29 23 44
16 130 -18 208 l-29 68 -44 -49z"/>
<path d="M8083 5588 c-83 -87 -119 -188 -89 -245 18 -35 33 -43 85 -43 73 0
122 83 102 172 -12 52 -51 148 -60 148 -4 0 -21 -15 -38 -32z"/>
<path d="M3950 3844 c-40 -28 -86 -31 -118 -8 -27 19 -28 9 -2 -33 17 -29 25
-33 64 -33 57 0 99 32 94 72 l-3 26 -35 -24z"/>
<path d="M4910 3193 c0 -46 23 -78 68 -94 56 -19 122 33 122 98 0 39 -3 40
-37 13 -33 -26 -73 -25 -117 1 l-36 21 0 -39z"/>
</g>
</svg>
